<svg id="visual" viewBox="0 0 960 540" width="960" height="540" xmlns="http://www.w3.org/2000/svg" xmlns:xlink="http://www.w3.org/1999/xlink" version="1.1"><rect x="0" y="0" width="960" height="540" fill="#ffffff"></rect><path d="M0 136L22.8 142C45.7 148 91.3 160 137 167C182.7 174 228.3 176 274 159.2C319.7 142.3 365.3 106.7 411.2 103.7C457 100.7 503 130.3 548.8 137.5C594.7 144.7 640.3 129.3 686 130.2C731.7 131 777.3 148 823 157.3C868.7 166.7 914.3 168.3 937.2 169.2L960 170L960 0L937.2 0C914.3 0 868.7 0 823 0C777.3 0 731.7 0 686 0C640.3 0 594.7 0 548.8 0C503 0 457 0 411.2 0C365.3 0 319.7 0 274 0C228.3 0 182.7 0 137 0C91.3 0 45.7 0 22.8 0L0 0Z" fill="#FFC200" stroke-linecap="round" stroke-linejoin="miter"></path></svg>